<?xml version="1.0" encoding="utf-8" standalone="no"?>
<!DOCTYPE svg PUBLIC "-//W3C//DTD SVG 1.1//EN"
  "http://www.w3.org/Graphics/SVG/1.1/DTD/svg11.dtd">
<svg xmlns:xlink="http://www.w3.org/1999/xlink" width="351.864pt" height="333.6pt" viewBox="0 0 351.864 333.6" xmlns="http://www.w3.org/2000/svg" version="1.1">
 <metadata>
  <rdf:RDF xmlns:dc="http://purl.org/dc/elements/1.1/" xmlns:cc="http://creativecommons.org/ns#" xmlns:rdf="http://www.w3.org/1999/02/22-rdf-syntax-ns#">
   <cc:Work>
    <dc:type rdf:resource="http://purl.org/dc/dcmitype/StillImage"/>
    <dc:date>2025-03-20T08:39:47.886472</dc:date>
    <dc:format>image/svg+xml</dc:format>
    <dc:creator>
     <cc:Agent>
      <dc:title>Matplotlib v3.10.1, https://matplotlib.org/</dc:title>
     </cc:Agent>
    </dc:creator>
   </cc:Work>
  </rdf:RDF>
 </metadata>
 <defs>
  <style type="text/css">*{stroke-linejoin: round; stroke-linecap: butt}</style>
 </defs>
 <g id="figure_1">
  <g id="patch_1">
   <path d="M 0 333.6 
L 351.864 333.6 
L 351.864 0 
L 0 0 
z
" style="fill: #ffffff"/>
  </g>
  <g id="axes_1">
   <g id="patch_2">
    <path d="M 329.184 218.58 
L 338.184 231.18 
L 347.184 218.58 
L 329.184 218.58 
z
" clip-path="url(#p7e6037120b)" style="fill: none; stroke: #000000; stroke-width: 2; stroke-linecap: round"/>
   </g>
   <g id="line2d_1">
    <path d="M 68.184 287.88 
L 212.184 287.88 
L 212.184 71.88 
L 68.184 71.88 
L 68.184 287.88 
" clip-path="url(#p7e6037120b)" style="fill: none; stroke: #000000; stroke-width: 2; stroke-linecap: round"/>
   </g>
   <g id="line2d_2">
    <path d="M 68.184 233.88 
L 32.184 233.88 
" clip-path="url(#p7e6037120b)" style="fill: none; stroke: #000000; stroke-width: 2; stroke-linecap: round"/>
   </g>
   <g id="line2d_3">
    <path d="M 68.184 179.88 
L 32.184 179.88 
" clip-path="url(#p7e6037120b)" style="fill: none; stroke: #000000; stroke-width: 2; stroke-linecap: round"/>
   </g>
   <g id="line2d_4">
    <path d="M 68.184 125.88 
L 32.184 125.88 
" clip-path="url(#p7e6037120b)" style="fill: none; stroke: #000000; stroke-width: 2; stroke-linecap: round"/>
   </g>
   <g id="line2d_5">
    <path d="M 212.184 215.88 
L 230.184 215.88 
" clip-path="url(#p7e6037120b)" style="fill: none; stroke: #000000; stroke-width: 2; stroke-linecap: round"/>
   </g>
   <g id="line2d_6">
    <path d="M 212.184 143.88 
L 230.184 143.88 
" clip-path="url(#p7e6037120b)" style="fill: none; stroke: #000000; stroke-width: 2; stroke-linecap: round"/>
   </g>
   <g id="line2d_7">
    <path d="M 122.184 71.88 
L 122.184 53.88 
" clip-path="url(#p7e6037120b)" style="fill: none; stroke: #000000; stroke-width: 2; stroke-linecap: round"/>
   </g>
   <g id="line2d_8">
    <path d="M 158.184 71.88 
L 158.184 53.88 
" clip-path="url(#p7e6037120b)" style="fill: none; stroke: #000000; stroke-width: 2; stroke-linecap: round"/>
   </g>
   <g id="line2d_9">
    <path d="M 140.184 287.88 
L 140.184 305.88 
" clip-path="url(#p7e6037120b)" style="fill: none; stroke: #000000; stroke-width: 2; stroke-linecap: round"/>
   </g>
   <g id="line2d_10">
    <path d="M 140.184 305.88 
L 140.184 320.28 
L 131.184 320.28 
L 149.184 320.28 
M 133.884 324.6 
L 146.484 324.6 
M 138.384 328.92 
L 141.984 328.92 
" clip-path="url(#p7e6037120b)" style="fill: none; stroke: #000000; stroke-width: 2; stroke-linecap: round"/>
   </g>
   <g id="line2d_11">
    <path d="M 32.184 125.88 
L 32.184 134.88 
L 41.184 134.88 
L 41.184 170.88 
L 23.184 170.88 
L 23.184 134.88 
L 32.184 134.88 
M 32.184 170.88 
L 32.184 179.88 
" clip-path="url(#p7e6037120b)" style="fill: none; stroke: #000000; stroke-width: 2; stroke-linecap: round"/>
   </g>
   <g id="line2d_12">
    <path d="M 32.184 125.88 
L 32.184 89.88 
L 23.184 89.88 
L 23.184 53.88 
L 41.184 53.88 
L 41.184 89.88 
L 32.184 89.88 
M 32.184 53.88 
L 32.184 17.88 
" clip-path="url(#p7e6037120b)" style="fill: none; stroke: #000000; stroke-width: 2; stroke-linecap: round"/>
   </g>
   <g id="line2d_13">
    <path d="M 32.184 179.88 
L 32.184 206.88 
L 32.184 233.88 
" clip-path="url(#p7e6037120b)" style="fill: none; stroke: #000000; stroke-width: 2; stroke-linecap: round"/>
   </g>
   <g id="line2d_14">
    <path d="M 32.184 233.88 
L 32.184 266.64 
M 41.184 266.64 
L 23.184 266.64 
M 41.184 273.12 
L 23.184 273.12 
M 32.184 273.12 
L 32.184 305.88 
" clip-path="url(#p7e6037120b)" style="fill: none; stroke: #000000; stroke-width: 2; stroke-linecap: round"/>
   </g>
   <g id="line2d_15">
    <path d="M 32.184 305.88 
L 86.184 305.88 
L 140.184 305.88 
" clip-path="url(#p7e6037120b)" style="fill: none; stroke: #000000; stroke-width: 2; stroke-linecap: round"/>
   </g>
   <g id="line2d_16">
    <path d="M 230.184 215.88 
L 230.184 257.64 
M 239.184 257.64 
L 221.184 257.64 
M 239.184 264.12 
L 221.184 264.12 
M 230.184 264.12 
L 230.184 305.88 
" clip-path="url(#p7e6037120b)" style="fill: none; stroke: #000000; stroke-width: 2; stroke-linecap: round"/>
   </g>
   <g id="line2d_17">
    <path d="M 122.184 53.88 
L 140.184 53.88 
L 158.184 53.88 
" clip-path="url(#p7e6037120b)" style="fill: none; stroke: #000000; stroke-width: 2; stroke-linecap: round"/>
   </g>
   <g id="line2d_18">
    <path d="M 158.184 53.88 
L 158.184 40.38 
L 158.184 26.88 
" clip-path="url(#p7e6037120b)" style="fill: none; stroke: #000000; stroke-width: 2; stroke-linecap: round"/>
   </g>
   <g id="line2d_19">
    <path d="M 230.184 143.88 
L 266.184 143.88 
L 266.184 134.88 
L 302.184 134.88 
L 302.184 152.88 
L 266.184 152.88 
L 266.184 143.88 
M 302.184 143.88 
L 338.184 143.88 
" clip-path="url(#p7e6037120b)" style="fill: none; stroke: #000000; stroke-width: 2; stroke-linecap: round"/>
   </g>
   <g id="line2d_20">
    <path d="M 338.184 143.88 
L 338.184 218.58 
M 329.184 231.18 
L 347.184 231.18 
M 338.184 231.18 
L 338.184 305.88 
" clip-path="url(#p7e6037120b)" style="fill: none; stroke: #000000; stroke-width: 2; stroke-linecap: round"/>
   </g>
   <g id="line2d_21">
    <path d="M 324.684 227.58 
L 315.185351 233.0078 
" clip-path="url(#p7e6037120b)" style="fill: none; stroke: #000000; stroke-width: 2; stroke-linecap: round"/>
   </g>
   <g id="patch_3">
    <path d="M 316.614231 235.50834 
L 308.934 236.58 
L 313.75647 230.507259 
z
" clip-path="url(#p7e6037120b)"/>
   </g>
   <g id="line2d_22">
    <path d="M 324.684 219.48 
L 315.185351 224.9078 
" clip-path="url(#p7e6037120b)" style="fill: none; stroke: #000000; stroke-width: 2; stroke-linecap: round"/>
   </g>
   <g id="patch_4">
    <path d="M 316.614231 227.40834 
L 308.934 228.48 
L 313.75647 222.407259 
z
" clip-path="url(#p7e6037120b)"/>
   </g>
   <g id="line2d_23">
    <path d="M 338.184 305.88 
L 239.184 305.88 
L 140.184 305.88 
" clip-path="url(#p7e6037120b)" style="fill: none; stroke: #000000; stroke-width: 2; stroke-linecap: round"/>
   </g>
   <g id="text_1">
    <!-- 2 -->
    <g transform="translate(59.38525 229.792344) scale(0.11 -0.11)">
     <defs>
      <path id="DejaVuSans-32" d="M 1228 531 
L 3431 531 
L 3431 0 
L 469 0 
L 469 531 
Q 828 903 1448 1529 
Q 2069 2156 2228 2338 
Q 2531 2678 2651 2914 
Q 2772 3150 2772 3378 
Q 2772 3750 2511 3984 
Q 2250 4219 1831 4219 
Q 1534 4219 1204 4116 
Q 875 4013 500 3803 
L 500 4441 
Q 881 4594 1212 4672 
Q 1544 4750 1819 4750 
Q 2544 4750 2975 4387 
Q 3406 4025 3406 3419 
Q 3406 3131 3298 2873 
Q 3191 2616 2906 2266 
Q 2828 2175 2409 1742 
Q 1991 1309 1228 531 
z
" transform="scale(0.015625)"/>
     </defs>
     <use xlink:href="#DejaVuSans-32"/>
    </g>
   </g>
   <g id="text_2">
    <!-- TRG -->
    <g transform="translate(73.584 237.743125) scale(0.14 -0.14)">
     <defs>
      <path id="DejaVuSans-54" d="M -19 4666 
L 3928 4666 
L 3928 4134 
L 2272 4134 
L 2272 0 
L 1638 0 
L 1638 4134 
L -19 4134 
L -19 4666 
z
" transform="scale(0.015625)"/>
      <path id="DejaVuSans-52" d="M 2841 2188 
Q 3044 2119 3236 1894 
Q 3428 1669 3622 1275 
L 4263 0 
L 3584 0 
L 2988 1197 
Q 2756 1666 2539 1819 
Q 2322 1972 1947 1972 
L 1259 1972 
L 1259 0 
L 628 0 
L 628 4666 
L 2053 4666 
Q 2853 4666 3247 4331 
Q 3641 3997 3641 3322 
Q 3641 2881 3436 2590 
Q 3231 2300 2841 2188 
z
M 1259 4147 
L 1259 2491 
L 2053 2491 
Q 2509 2491 2742 2702 
Q 2975 2913 2975 3322 
Q 2975 3731 2742 3939 
Q 2509 4147 2053 4147 
L 1259 4147 
z
" transform="scale(0.015625)"/>
      <path id="DejaVuSans-47" d="M 3809 666 
L 3809 1919 
L 2778 1919 
L 2778 2438 
L 4434 2438 
L 4434 434 
Q 4069 175 3628 42 
Q 3188 -91 2688 -91 
Q 1594 -91 976 548 
Q 359 1188 359 2328 
Q 359 3472 976 4111 
Q 1594 4750 2688 4750 
Q 3144 4750 3555 4637 
Q 3966 4525 4313 4306 
L 4313 3634 
Q 3963 3931 3569 4081 
Q 3175 4231 2741 4231 
Q 1884 4231 1454 3753 
Q 1025 3275 1025 2328 
Q 1025 1384 1454 906 
Q 1884 428 2741 428 
Q 3075 428 3337 486 
Q 3600 544 3809 666 
z
" transform="scale(0.015625)"/>
     </defs>
     <use xlink:href="#DejaVuSans-54"/>
     <use xlink:href="#DejaVuSans-52" transform="translate(61.083984 0)"/>
     <use xlink:href="#DejaVuSans-47" transform="translate(130.566406 0)"/>
    </g>
   </g>
   <g id="text_3">
    <!-- 6 -->
    <g transform="translate(59.38525 175.792344) scale(0.11 -0.11)">
     <defs>
      <path id="DejaVuSans-36" d="M 2113 2584 
Q 1688 2584 1439 2293 
Q 1191 2003 1191 1497 
Q 1191 994 1439 701 
Q 1688 409 2113 409 
Q 2538 409 2786 701 
Q 3034 994 3034 1497 
Q 3034 2003 2786 2293 
Q 2538 2584 2113 2584 
z
M 3366 4563 
L 3366 3988 
Q 3128 4100 2886 4159 
Q 2644 4219 2406 4219 
Q 1781 4219 1451 3797 
Q 1122 3375 1075 2522 
Q 1259 2794 1537 2939 
Q 1816 3084 2150 3084 
Q 2853 3084 3261 2657 
Q 3669 2231 3669 1497 
Q 3669 778 3244 343 
Q 2819 -91 2113 -91 
Q 1303 -91 875 529 
Q 447 1150 447 2328 
Q 447 3434 972 4092 
Q 1497 4750 2381 4750 
Q 2619 4750 2861 4703 
Q 3103 4656 3366 4563 
z
" transform="scale(0.015625)"/>
     </defs>
     <use xlink:href="#DejaVuSans-36"/>
    </g>
   </g>
   <g id="text_4">
    <!-- THR -->
    <g transform="translate(73.584 183.743125) scale(0.14 -0.14)">
     <defs>
      <path id="DejaVuSans-48" d="M 628 4666 
L 1259 4666 
L 1259 2753 
L 3553 2753 
L 3553 4666 
L 4184 4666 
L 4184 0 
L 3553 0 
L 3553 2222 
L 1259 2222 
L 1259 0 
L 628 0 
L 628 4666 
z
" transform="scale(0.015625)"/>
     </defs>
     <use xlink:href="#DejaVuSans-54"/>
     <use xlink:href="#DejaVuSans-48" transform="translate(61.083984 0)"/>
     <use xlink:href="#DejaVuSans-52" transform="translate(136.279297 0)"/>
    </g>
   </g>
   <g id="text_5">
    <!-- 7 -->
    <g transform="translate(59.38525 121.792344) scale(0.11 -0.11)">
     <defs>
      <path id="DejaVuSans-37" d="M 525 4666 
L 3525 4666 
L 3525 4397 
L 1831 0 
L 1172 0 
L 2766 4134 
L 525 4134 
L 525 4666 
z
" transform="scale(0.015625)"/>
     </defs>
     <use xlink:href="#DejaVuSans-37"/>
    </g>
   </g>
   <g id="text_6">
    <!-- DIS -->
    <g transform="translate(73.584 129.743125) scale(0.14 -0.14)">
     <defs>
      <path id="DejaVuSans-44" d="M 1259 4147 
L 1259 519 
L 2022 519 
Q 2988 519 3436 956 
Q 3884 1394 3884 2338 
Q 3884 3275 3436 3711 
Q 2988 4147 2022 4147 
L 1259 4147 
z
M 628 4666 
L 1925 4666 
Q 3281 4666 3915 4102 
Q 4550 3538 4550 2338 
Q 4550 1131 3912 565 
Q 3275 0 1925 0 
L 628 0 
L 628 4666 
z
" transform="scale(0.015625)"/>
      <path id="DejaVuSans-49" d="M 628 4666 
L 1259 4666 
L 1259 0 
L 628 0 
L 628 4666 
z
" transform="scale(0.015625)"/>
      <path id="DejaVuSans-53" d="M 3425 4513 
L 3425 3897 
Q 3066 4069 2747 4153 
Q 2428 4238 2131 4238 
Q 1616 4238 1336 4038 
Q 1056 3838 1056 3469 
Q 1056 3159 1242 3001 
Q 1428 2844 1947 2747 
L 2328 2669 
Q 3034 2534 3370 2195 
Q 3706 1856 3706 1288 
Q 3706 609 3251 259 
Q 2797 -91 1919 -91 
Q 1588 -91 1214 -16 
Q 841 59 441 206 
L 441 856 
Q 825 641 1194 531 
Q 1563 422 1919 422 
Q 2459 422 2753 634 
Q 3047 847 3047 1241 
Q 3047 1584 2836 1778 
Q 2625 1972 2144 2069 
L 1759 2144 
Q 1053 2284 737 2584 
Q 422 2884 422 3419 
Q 422 4038 858 4394 
Q 1294 4750 2059 4750 
Q 2388 4750 2728 4690 
Q 3069 4631 3425 4513 
z
" transform="scale(0.015625)"/>
     </defs>
     <use xlink:href="#DejaVuSans-44"/>
     <use xlink:href="#DejaVuSans-49" transform="translate(77.001953 0)"/>
     <use xlink:href="#DejaVuSans-53" transform="translate(106.494141 0)"/>
    </g>
   </g>
   <g id="text_7">
    <!-- 5 -->
    <g transform="translate(213.984 211.792344) scale(0.11 -0.11)">
     <defs>
      <path id="DejaVuSans-35" d="M 691 4666 
L 3169 4666 
L 3169 4134 
L 1269 4134 
L 1269 2991 
Q 1406 3038 1543 3061 
Q 1681 3084 1819 3084 
Q 2600 3084 3056 2656 
Q 3513 2228 3513 1497 
Q 3513 744 3044 326 
Q 2575 -91 1722 -91 
Q 1428 -91 1123 -41 
Q 819 9 494 109 
L 494 744 
Q 775 591 1075 516 
Q 1375 441 1709 441 
Q 2250 441 2565 725 
Q 2881 1009 2881 1497 
Q 2881 1984 2565 2268 
Q 2250 2553 1709 2553 
Q 1456 2553 1204 2497 
Q 953 2441 691 2322 
L 691 4666 
z
" transform="scale(0.015625)"/>
     </defs>
     <use xlink:href="#DejaVuSans-35"/>
    </g>
   </g>
   <g id="text_8">
    <!-- CTL -->
    <g transform="translate(180.6565 219.743125) scale(0.14 -0.14)">
     <defs>
      <path id="DejaVuSans-43" d="M 4122 4306 
L 4122 3641 
Q 3803 3938 3442 4084 
Q 3081 4231 2675 4231 
Q 1875 4231 1450 3742 
Q 1025 3253 1025 2328 
Q 1025 1406 1450 917 
Q 1875 428 2675 428 
Q 3081 428 3442 575 
Q 3803 722 4122 1019 
L 4122 359 
Q 3791 134 3420 21 
Q 3050 -91 2638 -91 
Q 1578 -91 968 557 
Q 359 1206 359 2328 
Q 359 3453 968 4101 
Q 1578 4750 2638 4750 
Q 3056 4750 3426 4639 
Q 3797 4528 4122 4306 
z
" transform="scale(0.015625)"/>
      <path id="DejaVuSans-4c" d="M 628 4666 
L 1259 4666 
L 1259 531 
L 3531 531 
L 3531 0 
L 628 0 
L 628 4666 
z
" transform="scale(0.015625)"/>
     </defs>
     <use xlink:href="#DejaVuSans-43"/>
     <use xlink:href="#DejaVuSans-54" transform="translate(69.824219 0)"/>
     <use xlink:href="#DejaVuSans-4c" transform="translate(130.908203 0)"/>
    </g>
   </g>
   <g id="text_9">
    <!-- 3 -->
    <g transform="translate(213.984 139.792344) scale(0.11 -0.11)">
     <defs>
      <path id="DejaVuSans-33" d="M 2597 2516 
Q 3050 2419 3304 2112 
Q 3559 1806 3559 1356 
Q 3559 666 3084 287 
Q 2609 -91 1734 -91 
Q 1441 -91 1130 -33 
Q 819 25 488 141 
L 488 750 
Q 750 597 1062 519 
Q 1375 441 1716 441 
Q 2309 441 2620 675 
Q 2931 909 2931 1356 
Q 2931 1769 2642 2001 
Q 2353 2234 1838 2234 
L 1294 2234 
L 1294 2753 
L 1863 2753 
Q 2328 2753 2575 2939 
Q 2822 3125 2822 3475 
Q 2822 3834 2567 4026 
Q 2313 4219 1838 4219 
Q 1578 4219 1281 4162 
Q 984 4106 628 3988 
L 628 4550 
Q 988 4650 1302 4700 
Q 1616 4750 1894 4750 
Q 2613 4750 3031 4423 
Q 3450 4097 3450 3541 
Q 3450 3153 3228 2886 
Q 3006 2619 2597 2516 
z
" transform="scale(0.015625)"/>
     </defs>
     <use xlink:href="#DejaVuSans-33"/>
    </g>
   </g>
   <g id="text_10">
    <!-- OUT -->
    <g transform="translate(176.966187 147.743125) scale(0.14 -0.14)">
     <defs>
      <path id="DejaVuSans-4f" d="M 2522 4238 
Q 1834 4238 1429 3725 
Q 1025 3213 1025 2328 
Q 1025 1447 1429 934 
Q 1834 422 2522 422 
Q 3209 422 3611 934 
Q 4013 1447 4013 2328 
Q 4013 3213 3611 3725 
Q 3209 4238 2522 4238 
z
M 2522 4750 
Q 3503 4750 4090 4092 
Q 4678 3434 4678 2328 
Q 4678 1225 4090 567 
Q 3503 -91 2522 -91 
Q 1538 -91 948 565 
Q 359 1222 359 2328 
Q 359 3434 948 4092 
Q 1538 4750 2522 4750 
z
" transform="scale(0.015625)"/>
      <path id="DejaVuSans-55" d="M 556 4666 
L 1191 4666 
L 1191 1831 
Q 1191 1081 1462 751 
Q 1734 422 2344 422 
Q 2950 422 3222 751 
Q 3494 1081 3494 1831 
L 3494 4666 
L 4128 4666 
L 4128 1753 
Q 4128 841 3676 375 
Q 3225 -91 2344 -91 
Q 1459 -91 1007 375 
Q 556 841 556 1753 
L 556 4666 
z
" transform="scale(0.015625)"/>
     </defs>
     <use xlink:href="#DejaVuSans-4f"/>
     <use xlink:href="#DejaVuSans-55" transform="translate(78.710938 0)"/>
     <use xlink:href="#DejaVuSans-54" transform="translate(151.904297 0)"/>
    </g>
   </g>
   <g id="text_11">
    <!-- 4 -->
    <g transform="translate(123.984 67.792344) scale(0.11 -0.11)">
     <defs>
      <path id="DejaVuSans-34" d="M 2419 4116 
L 825 1625 
L 2419 1625 
L 2419 4116 
z
M 2253 4666 
L 3047 4666 
L 3047 1625 
L 3713 1625 
L 3713 1100 
L 3047 1100 
L 3047 0 
L 2419 0 
L 2419 1100 
L 313 1100 
L 313 1709 
L 2253 4666 
z
" transform="scale(0.015625)"/>
     </defs>
     <use xlink:href="#DejaVuSans-34"/>
    </g>
   </g>
   <g id="text_12">
    <!-- RST -->
    <g transform="translate(108.600719 87.917812) scale(0.14 -0.14)">
     <use xlink:href="#DejaVuSans-52"/>
     <use xlink:href="#DejaVuSans-53" transform="translate(69.482422 0)"/>
     <use xlink:href="#DejaVuSans-54" transform="translate(132.958984 0)"/>
    </g>
   </g>
   <g id="text_13">
    <!-- 8 -->
    <g transform="translate(159.984 67.792344) scale(0.11 -0.11)">
     <defs>
      <path id="DejaVuSans-38" d="M 2034 2216 
Q 1584 2216 1326 1975 
Q 1069 1734 1069 1313 
Q 1069 891 1326 650 
Q 1584 409 2034 409 
Q 2484 409 2743 651 
Q 3003 894 3003 1313 
Q 3003 1734 2745 1975 
Q 2488 2216 2034 2216 
z
M 1403 2484 
Q 997 2584 770 2862 
Q 544 3141 544 3541 
Q 544 4100 942 4425 
Q 1341 4750 2034 4750 
Q 2731 4750 3128 4425 
Q 3525 4100 3525 3541 
Q 3525 3141 3298 2862 
Q 3072 2584 2669 2484 
Q 3125 2378 3379 2068 
Q 3634 1759 3634 1313 
Q 3634 634 3220 271 
Q 2806 -91 2034 -91 
Q 1263 -91 848 271 
Q 434 634 434 1313 
Q 434 1759 690 2068 
Q 947 2378 1403 2484 
z
M 1172 3481 
Q 1172 3119 1398 2916 
Q 1625 2713 2034 2713 
Q 2441 2713 2670 2916 
Q 2900 3119 2900 3481 
Q 2900 3844 2670 4047 
Q 2441 4250 2034 4250 
Q 1625 4250 1398 4047 
Q 1172 3844 1172 3481 
z
" transform="scale(0.015625)"/>
     </defs>
     <use xlink:href="#DejaVuSans-38"/>
    </g>
   </g>
   <g id="text_14">
    <!-- Vcc -->
    <g transform="translate(145.69775 87.917812) scale(0.14 -0.14)">
     <defs>
      <path id="DejaVuSans-56" d="M 1831 0 
L 50 4666 
L 709 4666 
L 2188 738 
L 3669 4666 
L 4325 4666 
L 2547 0 
L 1831 0 
z
" transform="scale(0.015625)"/>
      <path id="DejaVuSans-63" d="M 3122 3366 
L 3122 2828 
Q 2878 2963 2633 3030 
Q 2388 3097 2138 3097 
Q 1578 3097 1268 2742 
Q 959 2388 959 1747 
Q 959 1106 1268 751 
Q 1578 397 2138 397 
Q 2388 397 2633 464 
Q 2878 531 3122 666 
L 3122 134 
Q 2881 22 2623 -34 
Q 2366 -91 2075 -91 
Q 1284 -91 818 406 
Q 353 903 353 1747 
Q 353 2603 823 3093 
Q 1294 3584 2113 3584 
Q 2378 3584 2631 3529 
Q 2884 3475 3122 3366 
z
" transform="scale(0.015625)"/>
     </defs>
     <use xlink:href="#DejaVuSans-56"/>
     <use xlink:href="#DejaVuSans-63" transform="translate(68.408203 0)"/>
     <use xlink:href="#DejaVuSans-63" transform="translate(123.388672 0)"/>
    </g>
   </g>
   <g id="text_15">
    <!-- 1 -->
    <g transform="translate(141.984 298.038281) scale(0.11 -0.11)">
     <defs>
      <path id="DejaVuSans-31" d="M 794 531 
L 1825 531 
L 1825 4091 
L 703 3866 
L 703 4441 
L 1819 4666 
L 2450 4666 
L 2450 531 
L 3481 531 
L 3481 0 
L 794 0 
L 794 531 
z
" transform="scale(0.015625)"/>
     </defs>
     <use xlink:href="#DejaVuSans-31"/>
    </g>
   </g>
   <g id="text_16">
    <!-- GND -->
    <g transform="translate(124.133219 279.568437) scale(0.14 -0.14)">
     <defs>
      <path id="DejaVuSans-4e" d="M 628 4666 
L 1478 4666 
L 3547 763 
L 3547 4666 
L 4159 4666 
L 4159 0 
L 3309 0 
L 1241 3903 
L 1241 0 
L 628 0 
L 628 4666 
z
" transform="scale(0.015625)"/>
     </defs>
     <use xlink:href="#DejaVuSans-47"/>
     <use xlink:href="#DejaVuSans-4e" transform="translate(77.490234 0)"/>
     <use xlink:href="#DejaVuSans-44" transform="translate(152.294922 0)"/>
    </g>
   </g>
   <g id="text_17">
    <!-- 555 -->
    <g transform="translate(132.3315 179.59125) scale(0.12 -0.12)">
     <use xlink:href="#DejaVuSans-35"/>
     <use xlink:href="#DejaVuSans-35" transform="translate(63.623047 0)"/>
     <use xlink:href="#DejaVuSans-35" transform="translate(127.246094 0)"/>
    </g>
   </g>
   <g id="patch_5">
    <path d="M 32.184 128.58 
C 32.900048 128.58 33.586866 128.295511 34.093188 127.789188 
C 34.599511 127.282866 34.884 126.596048 34.884 125.88 
C 34.884 125.163952 34.599511 124.477134 34.093188 123.970812 
C 33.586866 123.464489 32.900048 123.18 32.184 123.18 
C 31.467952 123.18 30.781134 123.464489 30.274812 123.970812 
C 29.768489 124.477134 29.484 125.163952 29.484 125.88 
C 29.484 126.596048 29.768489 127.282866 30.274812 127.789188 
C 30.781134 128.295511 31.467952 128.58 32.184 128.58 
z
" clip-path="url(#p7e6037120b)" style="stroke: #000000; stroke-width: 2; stroke-linejoin: miter"/>
   </g>
   <g id="text_18">
    <!-- Rb -->
    <g transform="translate(3.62775 154.84125) scale(0.12 -0.12)">
     <defs>
      <path id="DejaVuSans-62" d="M 3116 1747 
Q 3116 2381 2855 2742 
Q 2594 3103 2138 3103 
Q 1681 3103 1420 2742 
Q 1159 2381 1159 1747 
Q 1159 1113 1420 752 
Q 1681 391 2138 391 
Q 2594 391 2855 752 
Q 3116 1113 3116 1747 
z
M 1159 2969 
Q 1341 3281 1617 3432 
Q 1894 3584 2278 3584 
Q 2916 3584 3314 3078 
Q 3713 2572 3713 1747 
Q 3713 922 3314 415 
Q 2916 -91 2278 -91 
Q 1894 -91 1617 61 
Q 1341 213 1159 525 
L 1159 0 
L 581 0 
L 581 4863 
L 1159 4863 
L 1159 2969 
z
" transform="scale(0.015625)"/>
     </defs>
     <use xlink:href="#DejaVuSans-52"/>
     <use xlink:href="#DejaVuSans-62" transform="translate(69.482422 0)"/>
    </g>
   </g>
   <g id="text_19">
    <!-- Ra -->
    <g transform="translate(4.162125 75.19125) scale(0.12 -0.12)">
     <defs>
      <path id="DejaVuSans-61" d="M 2194 1759 
Q 1497 1759 1228 1600 
Q 959 1441 959 1056 
Q 959 750 1161 570 
Q 1363 391 1709 391 
Q 2188 391 2477 730 
Q 2766 1069 2766 1631 
L 2766 1759 
L 2194 1759 
z
M 3341 1997 
L 3341 0 
L 2766 0 
L 2766 531 
Q 2569 213 2275 61 
Q 1981 -91 1556 -91 
Q 1019 -91 701 211 
Q 384 513 384 1019 
Q 384 1609 779 1909 
Q 1175 2209 1959 2209 
L 2766 2209 
L 2766 2266 
Q 2766 2663 2505 2880 
Q 2244 3097 1772 3097 
Q 1472 3097 1187 3025 
Q 903 2953 641 2809 
L 641 3341 
Q 956 3463 1253 3523 
Q 1550 3584 1831 3584 
Q 2591 3584 2966 3190 
Q 3341 2797 3341 1997 
z
" transform="scale(0.015625)"/>
     </defs>
     <use xlink:href="#DejaVuSans-52"/>
     <use xlink:href="#DejaVuSans-61" transform="translate(67.232422 0)"/>
    </g>
   </g>
   <g id="text_20">
    <!-- +Vcc -->
    <g transform="translate(16.453687 11.784375) scale(0.12 -0.12)">
     <defs>
      <path id="DejaVuSans-2b" d="M 2944 4013 
L 2944 2272 
L 4684 2272 
L 4684 1741 
L 2944 1741 
L 2944 0 
L 2419 0 
L 2419 1741 
L 678 1741 
L 678 2272 
L 2419 2272 
L 2419 4013 
L 2944 4013 
z
" transform="scale(0.015625)"/>
     </defs>
     <use xlink:href="#DejaVuSans-2b"/>
     <use xlink:href="#DejaVuSans-56" transform="translate(83.789062 0)"/>
     <use xlink:href="#DejaVuSans-63" transform="translate(152.197266 0)"/>
     <use xlink:href="#DejaVuSans-63" transform="translate(207.177734 0)"/>
    </g>
   </g>
   <g id="text_21">
    <!-- C -->
    <g transform="translate(11.204625 273.19125) scale(0.12 -0.12)">
     <use xlink:href="#DejaVuSans-43"/>
    </g>
   </g>
   <g id="patch_6">
    <path d="M 230.184 308.58 
C 230.900048 308.58 231.586866 308.295511 232.093188 307.789188 
C 232.599511 307.282866 232.884 306.596048 232.884 305.88 
C 232.884 305.163952 232.599511 304.477134 232.093188 303.970812 
C 231.586866 303.464489 230.900048 303.18 230.184 303.18 
C 229.467952 303.18 228.781134 303.464489 228.274812 303.970812 
C 227.768489 304.477134 227.484 305.163952 227.484 305.88 
C 227.484 306.596048 227.768489 307.282866 228.274812 307.789188 
C 228.781134 308.295511 229.467952 308.58 230.184 308.58 
z
" clip-path="url(#p7e6037120b)" style="stroke: #000000; stroke-width: 2; stroke-linejoin: miter"/>
   </g>
   <g id="text_22">
    <!-- .01$\mu$F -->
    <g transform="translate(242.784 265.516875) scale(0.12 -0.12)">
     <defs>
      <path id="DejaVuSans-2e" d="M 684 794 
L 1344 794 
L 1344 0 
L 684 0 
L 684 794 
z
" transform="scale(0.015625)"/>
      <path id="DejaVuSans-30" d="M 2034 4250 
Q 1547 4250 1301 3770 
Q 1056 3291 1056 2328 
Q 1056 1369 1301 889 
Q 1547 409 2034 409 
Q 2525 409 2770 889 
Q 3016 1369 3016 2328 
Q 3016 3291 2770 3770 
Q 2525 4250 2034 4250 
z
M 2034 4750 
Q 2819 4750 3233 4129 
Q 3647 3509 3647 2328 
Q 3647 1150 3233 529 
Q 2819 -91 2034 -91 
Q 1250 -91 836 529 
Q 422 1150 422 2328 
Q 422 3509 836 4129 
Q 1250 4750 2034 4750 
z
" transform="scale(0.015625)"/>
      <path id="DejaVuSans-Oblique-3bc" d="M -84 -1331 
L 856 3500 
L 1434 3500 
L 1009 1322 
Q 997 1256 987 1175 
Q 978 1094 978 1013 
Q 978 722 1161 565 
Q 1344 409 1684 409 
Q 2147 409 2431 671 
Q 2716 934 2816 1459 
L 3213 3500 
L 3788 3500 
L 3266 809 
Q 3253 750 3248 706 
Q 3244 663 3244 628 
Q 3244 531 3283 486 
Q 3322 441 3406 441 
Q 3438 441 3492 456 
Q 3547 472 3647 513 
L 3559 50 
Q 3422 -19 3297 -55 
Q 3172 -91 3053 -91 
Q 2847 -91 2730 40 
Q 2613 172 2613 403 
Q 2438 153 2195 31 
Q 1953 -91 1625 -91 
Q 1334 -91 1117 43 
Q 900 178 831 397 
L 494 -1331 
L -84 -1331 
z
" transform="scale(0.015625)"/>
      <path id="DejaVuSans-46" d="M 628 4666 
L 3309 4666 
L 3309 4134 
L 1259 4134 
L 1259 2759 
L 3109 2759 
L 3109 2228 
L 1259 2228 
L 1259 0 
L 628 0 
L 628 4666 
z
" transform="scale(0.015625)"/>
     </defs>
     <use xlink:href="#DejaVuSans-2e" transform="translate(0 0.78125)"/>
     <use xlink:href="#DejaVuSans-30" transform="translate(31.787109 0.78125)"/>
     <use xlink:href="#DejaVuSans-31" transform="translate(95.410156 0.78125)"/>
     <use xlink:href="#DejaVuSans-Oblique-3bc" transform="translate(159.033203 0.78125)"/>
     <use xlink:href="#DejaVuSans-46" transform="translate(222.65625 0.78125)"/>
    </g>
   </g>
   <g id="patch_7">
    <path d="M 158.184 56.58 
C 158.900048 56.58 159.586866 56.295511 160.093188 55.789188 
C 160.599511 55.282866 160.884 54.596048 160.884 53.88 
C 160.884 53.163952 160.599511 52.477134 160.093188 51.970812 
C 159.586866 51.464489 158.900048 51.18 158.184 51.18 
C 157.467952 51.18 156.781134 51.464489 156.274812 51.970812 
C 155.768489 52.477134 155.484 53.163952 155.484 53.88 
C 155.484 54.596048 155.768489 55.282866 156.274812 55.789188 
C 156.781134 56.295511 157.467952 56.58 158.184 56.58 
z
" clip-path="url(#p7e6037120b)" style="stroke: #000000; stroke-width: 2; stroke-linejoin: miter"/>
   </g>
   <g id="text_23">
    <!-- +Vcc -->
    <g transform="translate(142.453687 20.784375) scale(0.12 -0.12)">
     <use xlink:href="#DejaVuSans-2b"/>
     <use xlink:href="#DejaVuSans-56" transform="translate(83.789062 0)"/>
     <use xlink:href="#DejaVuSans-63" transform="translate(152.197266 0)"/>
     <use xlink:href="#DejaVuSans-63" transform="translate(207.177734 0)"/>
    </g>
   </g>
   <g id="text_24">
    <!-- R -->
    <g transform="translate(280.014937 128.784375) scale(0.12 -0.12)">
     <use xlink:href="#DejaVuSans-52"/>
    </g>
   </g>
   <g id="patch_8">
    <path d="M 140.184 308.58 
C 140.900048 308.58 141.586866 308.295511 142.093188 307.789188 
C 142.599511 307.282866 142.884 306.596048 142.884 305.88 
C 142.884 305.163952 142.599511 304.477134 142.093188 303.970812 
C 141.586866 303.464489 140.900048 303.18 140.184 303.18 
C 139.467952 303.18 138.781134 303.464489 138.274812 303.970812 
C 137.768489 304.477134 137.484 305.163952 137.484 305.88 
C 137.484 306.596048 137.768489 307.282866 138.274812 307.789188 
C 138.781134 308.295511 139.467952 308.58 140.184 308.58 
z
" clip-path="url(#p7e6037120b)" style="stroke: #000000; stroke-width: 2; stroke-linejoin: miter"/>
   </g>
   <g id="patch_9">
    <path d="M 32.184 128.58 
C 32.900048 128.58 33.586866 128.295511 34.093188 127.789188 
C 34.599511 127.282866 34.884 126.596048 34.884 125.88 
C 34.884 125.163952 34.599511 124.477134 34.093188 123.970812 
C 33.586866 123.464489 32.900048 123.18 32.184 123.18 
C 31.467952 123.18 30.781134 123.464489 30.274812 123.970812 
C 29.768489 124.477134 29.484 125.163952 29.484 125.88 
C 29.484 126.596048 29.768489 127.282866 30.274812 127.789188 
C 30.781134 128.295511 31.467952 128.58 32.184 128.58 
z
" clip-path="url(#p7e6037120b)" style="stroke: #000000; stroke-width: 2; stroke-linejoin: miter"/>
   </g>
   <g id="patch_10">
    <path d="M 32.184 182.58 
C 32.900048 182.58 33.586866 182.295511 34.093188 181.789188 
C 34.599511 181.282866 34.884 180.596048 34.884 179.88 
C 34.884 179.163952 34.599511 178.477134 34.093188 177.970812 
C 33.586866 177.464489 32.900048 177.18 32.184 177.18 
C 31.467952 177.18 30.781134 177.464489 30.274812 177.970812 
C 29.768489 178.477134 29.484 179.163952 29.484 179.88 
C 29.484 180.596048 29.768489 181.282866 30.274812 181.789188 
C 30.781134 182.295511 31.467952 182.58 32.184 182.58 
z
" clip-path="url(#p7e6037120b)" style="stroke: #000000; stroke-width: 2; stroke-linejoin: miter"/>
   </g>
   <g id="patch_11">
    <path d="M 32.184 236.58 
C 32.900048 236.58 33.586866 236.295511 34.093188 235.789188 
C 34.599511 235.282866 34.884 234.596048 34.884 233.88 
C 34.884 233.163952 34.599511 232.477134 34.093188 231.970812 
C 33.586866 231.464489 32.900048 231.18 32.184 231.18 
C 31.467952 231.18 30.781134 231.464489 30.274812 231.970812 
C 29.768489 232.477134 29.484 233.163952 29.484 233.88 
C 29.484 234.596048 29.768489 235.282866 30.274812 235.789188 
C 30.781134 236.295511 31.467952 236.58 32.184 236.58 
z
" clip-path="url(#p7e6037120b)" style="stroke: #000000; stroke-width: 2; stroke-linejoin: miter"/>
   </g>
  </g>
 </g>
 <defs>
  <clipPath id="p7e6037120b">
   <rect x="0" y="0" width="351.864" height="333.6"/>
  </clipPath>
 </defs>
</svg>
