<?xml version="1.0" encoding="utf-8" standalone="no"?>
<!DOCTYPE svg PUBLIC "-//W3C//DTD SVG 1.1//EN"
  "http://www.w3.org/Graphics/SVG/1.1/DTD/svg11.dtd">
<svg xmlns:xlink="http://www.w3.org/1999/xlink" width="144.36pt" height="152.36pt" viewBox="0 0 144.36 152.36" xmlns="http://www.w3.org/2000/svg" version="1.1">
 <metadata>
  <rdf:RDF xmlns:dc="http://purl.org/dc/elements/1.1/" xmlns:cc="http://creativecommons.org/ns#" xmlns:rdf="http://www.w3.org/1999/02/22-rdf-syntax-ns#">
   <cc:Work>
    <dc:type rdf:resource="http://purl.org/dc/dcmitype/StillImage"/>
    <dc:date>2025-03-15T16:13:59.023051</dc:date>
    <dc:format>image/svg+xml</dc:format>
    <dc:creator>
     <cc:Agent>
      <dc:title>Matplotlib v3.10.1, https://matplotlib.org/</dc:title>
     </cc:Agent>
    </dc:creator>
   </cc:Work>
  </rdf:RDF>
 </metadata>
 <defs>
  <style type="text/css">*{stroke-linejoin: round; stroke-linecap: butt}</style>
 </defs>
 <g id="figure_1">
  <g id="patch_1">
   <path d="M 0 152.36 
L 144.36 152.36 
L 144.36 0 
L 0 0 
z
" style="fill: #ffffff"/>
  </g>
  <g id="axes_1">
   <g id="patch_2">
    <path d="M 22.68 94.18 
C 27.453656 94.18 32.032438 92.283406 35.407922 88.907922 
C 38.783406 85.532438 40.68 80.953656 40.68 76.18 
C 40.68 71.406344 38.783406 66.827562 35.407922 63.452078 
C 32.032438 60.076594 27.453656 58.18 22.68 58.18 
C 17.906344 58.18 13.327562 60.076594 9.952078 63.452078 
C 6.576594 66.827562 4.68 71.406344 4.68 76.18 
C 4.68 80.953656 6.576594 85.532438 9.952078 88.907922 
C 13.327562 92.283406 17.906344 94.18 22.68 94.18 
L 22.68 94.18 
z
" clip-path="url(#p99d64f0085)" style="fill: none; stroke: #000000; stroke-width: 2; stroke-linejoin: miter"/>
   </g>
   <g id="line2d_1">
    <path d="M 22.68 130.18 
L 22.68 94.18 
L 22.68 94.18 
M 22.68 58.18 
L 22.68 58.18 
L 22.68 22.18 
" clip-path="url(#p99d64f0085)" style="fill: none; stroke: #000000; stroke-width: 2; stroke-linecap: round"/>
   </g>
   <g id="line2d_2">
    <path d="M 26.28 85.18 
L 19.08 85.18 
" clip-path="url(#p99d64f0085)" style="fill: none; stroke: #000000; stroke-width: 2; stroke-linecap: round"/>
   </g>
   <g id="line2d_3">
    <path d="M 22.68 70.78 
L 22.68 63.58 
" clip-path="url(#p99d64f0085)" style="fill: none; stroke: #000000; stroke-width: 2; stroke-linecap: round"/>
   </g>
   <g id="line2d_4">
    <path d="M 26.28 67.18 
L 19.08 67.18 
" clip-path="url(#p99d64f0085)" style="fill: none; stroke: #000000; stroke-width: 2; stroke-linecap: round"/>
   </g>
   <g id="line2d_5">
    <path d="M 22.68 22.18 
L 76.68 22.18 
L 130.68 22.18 
" clip-path="url(#p99d64f0085)" style="fill: none; stroke: #000000; stroke-width: 2; stroke-linecap: round"/>
   </g>
   <g id="line2d_6">
    <path d="M 130.68 22.18 
L 130.68 58.18 
L 139.68 58.18 
L 139.68 94.18 
L 121.68 94.18 
L 121.68 58.18 
L 130.68 58.18 
M 130.68 94.18 
L 130.68 130.18 
" clip-path="url(#p99d64f0085)" style="fill: none; stroke: #000000; stroke-width: 2; stroke-linecap: round"/>
   </g>
   <g id="line2d_7">
    <path d="M 130.68 130.18 
L 76.68 130.18 
L 22.68 130.18 
" clip-path="url(#p99d64f0085)" style="fill: none; stroke: #000000; stroke-width: 2; stroke-linecap: round"/>
   </g>
   <g id="text_1">
    <!-- $U$ -->
    <g transform="translate(44.28 80.043125) scale(0.14 -0.14)">
     <defs>
      <path id="DejaVuSans-Oblique-55" d="M 991 4666 
L 1625 4666 
L 1075 1831 
Q 1041 1641 1027 1517 
Q 1013 1394 1013 1300 
Q 1013 869 1253 645 
Q 1494 422 1959 422 
Q 2563 422 2898 753 
Q 3234 1084 3378 1831 
L 3928 4666 
L 4563 4666 
L 4000 1753 
Q 3816 809 3300 359 
Q 2784 -91 1888 -91 
Q 1188 -91 780 261 
Q 372 613 372 1216 
Q 372 1325 387 1461 
Q 403 1597 434 1753 
L 991 4666 
z
" transform="scale(0.015625)"/>
     </defs>
     <use xlink:href="#DejaVuSans-Oblique-55" transform="translate(0 0.09375)"/>
    </g>
   </g>
   <g id="text_2">
    <!-- $R$ -->
    <g transform="translate(108.28 80.043125) scale(0.14 -0.14)">
     <defs>
      <path id="DejaVuSans-Oblique-52" d="M 1613 4147 
L 1294 2491 
L 2106 2491 
Q 2584 2491 2879 2755 
Q 3175 3019 3175 3444 
Q 3175 3784 2976 3965 
Q 2778 4147 2406 4147 
L 1613 4147 
z
M 2772 2241 
Q 2972 2194 3105 2009 
Q 3238 1825 3413 1275 
L 3809 0 
L 3144 0 
L 2778 1197 
Q 2638 1659 2453 1815 
Q 2269 1972 1888 1972 
L 1191 1972 
L 806 0 
L 172 0 
L 1081 4666 
L 2503 4666 
Q 3150 4666 3495 4373 
Q 3841 4081 3841 3531 
Q 3841 3044 3547 2687 
Q 3253 2331 2772 2241 
z
" transform="scale(0.015625)"/>
     </defs>
     <use xlink:href="#DejaVuSans-Oblique-52" transform="translate(0 0.09375)"/>
    </g>
   </g>
   <g id="line2d_8">
    <path d="M 91.08 22.18 
L 91.08 22.18 
" clip-path="url(#p99d64f0085)" style="fill: none; stroke: #000000; stroke-width: 2; stroke-linecap: round"/>
   </g>
   <g id="patch_3">
    <path d="M 91.08 16.78 
L 101.88 22.18 
L 91.08 27.58 
z
" clip-path="url(#p99d64f0085)"/>
   </g>
   <g id="text_3">
    <!-- $I$ -->
    <g transform="translate(94.38 43.617812) scale(0.14 -0.14)">
     <defs>
      <path id="DejaVuSans-Oblique-49" d="M 1081 4666 
L 1716 4666 
L 806 0 
L 172 0 
L 1081 4666 
z
" transform="scale(0.015625)"/>
     </defs>
     <use xlink:href="#DejaVuSans-Oblique-49" transform="translate(0 0.09375)"/>
    </g>
   </g>
   <g id="patch_4">
    <path d="M 22.68 24.88 
C 23.396048 24.88 24.082866 24.595511 24.589188 24.089188 
C 25.095511 23.582866 25.38 22.896048 25.38 22.18 
C 25.38 21.463952 25.095511 20.777134 24.589188 20.270812 
C 24.082866 19.764489 23.396048 19.48 22.68 19.48 
C 21.963952 19.48 21.277134 19.764489 20.770812 20.270812 
C 20.264489 20.777134 19.98 21.463952 19.98 22.18 
C 19.98 22.896048 20.264489 23.582866 20.770812 24.089188 
C 21.277134 24.595511 21.963952 24.88 22.68 24.88 
z
" clip-path="url(#p99d64f0085)" style="fill: #ffffff; stroke: #000000; stroke-width: 2; stroke-linejoin: miter"/>
   </g>
   <g id="text_4">
    <!-- $A$ -->
    <g transform="translate(17.85 12.968437) scale(0.14 -0.14)">
     <defs>
      <path id="DejaVuSans-Oblique-41" d="M 2356 4666 
L 3072 4666 
L 3938 0 
L 3278 0 
L 3084 1197 
L 984 1197 
L 325 0 
L -341 0 
L 2356 4666 
z
M 2584 4044 
L 1275 1722 
L 2988 1722 
L 2584 4044 
z
" transform="scale(0.015625)"/>
     </defs>
     <use xlink:href="#DejaVuSans-Oblique-41" transform="translate(0 0.09375)"/>
    </g>
   </g>
   <g id="patch_5">
    <path d="M 22.68 132.88 
C 23.396048 132.88 24.082866 132.595511 24.589188 132.089188 
C 25.095511 131.582866 25.38 130.896048 25.38 130.18 
C 25.38 129.463952 25.095511 128.777134 24.589188 128.270812 
C 24.082866 127.764489 23.396048 127.48 22.68 127.48 
C 21.963952 127.48 21.277134 127.764489 20.770812 128.270812 
C 20.264489 128.777134 19.98 129.463952 19.98 130.18 
C 19.98 130.896048 20.264489 131.582866 20.770812 132.089188 
C 21.277134 132.595511 21.963952 132.88 22.68 132.88 
z
" clip-path="url(#p99d64f0085)" style="fill: #ffffff; stroke: #000000; stroke-width: 2; stroke-linejoin: miter"/>
   </g>
   <g id="text_5">
    <!-- $B$ -->
    <g transform="translate(17.85 147.117812) scale(0.14 -0.14)">
     <defs>
      <path id="DejaVuSans-Oblique-42" d="M 1081 4666 
L 2694 4666 
Q 3350 4666 3675 4422 
Q 4000 4178 4000 3688 
Q 4000 3238 3720 2911 
Q 3441 2584 2988 2516 
Q 3375 2428 3569 2181 
Q 3763 1934 3763 1522 
Q 3763 819 3242 409 
Q 2722 0 1819 0 
L 172 0 
L 1081 4666 
z
M 1234 2228 
L 903 519 
L 1919 519 
Q 2491 519 2800 781 
Q 3109 1044 3109 1522 
Q 3109 1891 2904 2059 
Q 2700 2228 2247 2228 
L 1234 2228 
z
M 1606 4147 
L 1331 2741 
L 2272 2741 
Q 2775 2741 3058 2959 
Q 3341 3178 3341 3566 
Q 3341 3869 3150 4008 
Q 2959 4147 2541 4147 
L 1606 4147 
z
" transform="scale(0.015625)"/>
     </defs>
     <use xlink:href="#DejaVuSans-Oblique-42" transform="translate(0 0.09375)"/>
    </g>
   </g>
  </g>
 </g>
 <defs>
  <clipPath id="p99d64f0085">
   <rect x="0" y="0" width="144.36" height="152.36"/>
  </clipPath>
 </defs>
</svg>
